# Blender v2.77 (sub 0) OBJ File: 'box.blend'
# www.blender.org
mtllib box.mtl
o Cube
v 0.500000 -0.500000 -0.500000
v 0.500000 -0.500000 0.500000
v -0.500000 -0.500000 0.500000
v -0.500000 -0.500000 -0.500000
v 0.500000 0.500000 -0.500000
v 0.500000 0.500000 0.500000
v -0.500000 0.500000 0.500000
v -0.500000 0.500000 -0.500000
vt 0.6665 0.6675
vt 0.6665 1.0005
vt 0.3335 1.0005
vt 0.3335 0.6675
vt 0.3332 0.6662
vt 0.0002 0.6662
vt 0.0002 0.3332
vt 0.3332 0.3332
vt 1.0005 0.0002
vt 1.0005 0.6691
vt 0.3354 0.6691
vt 0.3335 0.0002
vt 0.3332 0.0002
vt 0.0002 0.0002
vt 0.6668 1.0011
vt 0.6668 0.6681
vt 0.9998 0.6681
vt 0.9998 1.0011
vt 0.3332 0.9992
vt 0.0002 0.9992
vn 0.0000 -1.0000 0.0000
vn 0.0000 1.0000 0.0000
vn 1.0000 0.0000 0.0000
vn -0.0000 -0.0000 1.0000
vn -1.0000 -0.0000 -0.0000
vn 0.0000 0.0000 -1.0000
usemtl Material
s off
f 1/1/1 2/2/1 3/3/1 4/4/1
f 5/5/2 8/6/2 7/7/2 6/8/2
f 1/9/3 5/10/3 6/11/3 2/12/3
f 2/13/4 6/8/4 7/7/4 3/14/4
f 3/15/5 7/16/5 8/17/5 4/18/5
f 5/5/6 1/19/6 4/20/6 8/6/6
